# xmcd
#
# Track frame offsets: 
#        150
#        24909
#        49748
#        78398
#        100697
#        121834
#        146509
#        176359
#        205411
#        225136
#        252301
#        278509
#
# Disc length: 4004 seconds
#
# Revision: 10
# Processed by: cddbd v1.4PL0 Copyright (c) Steve Scherf et al.
# Submitted via: ExactAudioCopy v0.90b4
#
DISCID=8d0fa20c
DTITLE=Etta James - Heart Of A Woman
DYEAR=1999
DGENRE=Blues
TTITLE0=You Don't Know What Love Is
TTITLE1=Good Morning Heartache
TTITLE2=My Old Flame
TTITLE3=Say It Isn't So
TTITLE4=At Last
TTITLE5=Tenderly
TTITLE6=I Only Have Eyes For You
TTITLE7=I Got It Bad And It Ain't Good
TTITLE8=You Go To My Head
TTITLE9=Sunday Kind Of Love
TTITLE10=If It's The Last Thing I Do
TTITLE11=Only Women Bleed
EXTD=
EXTT0=
EXTT1=
EXTT2=
EXTT3=
EXTT4=
EXTT5=
EXTT6=
EXTT7=
EXTT8=
EXTT9=
EXTT10=
EXTT11=
PLAYORDER=
